<?xml version="1.0" encoding="UTF-8"?>
<svg width="20px" height="22px" viewBox="0 0 20 22" version="1.1" xmlns="http://www.w3.org/2000/svg" xmlns:xlink="http://www.w3.org/1999/xlink">
    <title>ic_delete</title>
    <g id="Page-1" stroke="none" stroke-width="1" fill="none" fill-rule="evenodd">
        <g id="Notend---Energy-Quote---2-Add" transform="translate(-1048.000000, -296.000000)">
            <g id="trash" transform="translate(1046.000000, 295.000000)">
                <path d="M20.919672,6.72997594 C15.6296721,6.19997597 10.3496714,5.99997628 5.11967134,6.52997625 L3.07967138,6.72997594 C2.6596714,6.76997594 2.28967143,6.46997622 2.24967143,6.04997623 C2.20967143,5.62997624 2.50967154,5.269976 2.91967154,5.229976 L4.9596715,5.02997622 C10.2796717,4.4899762 15.6696715,4.69997603 21.0696716,5.229976 C21.4796716,5.269976 21.7796717,5.63997623 21.7396717,6.04997623 C21.7096717,6.43997622 21.3796719,6.72997594 20.9996719,6.72997594 C20.9796719,6.72997594 20.949672,6.72997594 20.919672,6.72997594 Z" id="Vector" fill="#DC2556" fill-rule="nonzero"></path>
                <path d="M8.37074178,5.71000004 C7.97074178,5.64000004 7.69074215,5.25 7.76074215,4.8499999 L7.98074195,3.53999996 C8.14074194,2.57999998 8.36074162,1.25 10.6907415,1.25 L13.3107424,1.25 C15.6507423,1.25 15.8707424,2.62999994 16.0207424,3.54999995 L16.2407417,4.8499999 C16.3107417,5.2599999 16.0307421,5.65000004 15.6307421,5.71000004 C15.2207421,5.78000004 14.8307424,5.49999991 14.7707424,5.0999999 L14.5507421,3.79999995 C14.4107421,2.92999995 14.3807416,2.75999999 13.3207417,2.75999999 L10.7007418,2.75999999 C9.64074183,2.75999999 9.62074223,2.89999998 9.47074223,3.78999996 L9.24074173,5.09000015 C9.18074173,5.46000016 8.86074191,5.71999979 8.5007419,5.71999979 C8.4607419,5.71999979 8.42074179,5.72000004 8.37074178,5.71000004 Z" id="Vector" fill="#DC2556" fill-rule="nonzero"></path>
                <path d="M8.79038668,22.7500753 C5.30038667,22.7500753 5.16038714,20.8200755 5.05038714,19.2600756 L4.40038704,9.19007498 C4.37038704,8.78007498 4.69038686,8.42007575 5.10038686,8.39007575 C5.52038684,8.37007575 5.87038705,8.68007556 5.90038705,9.09007555 L6.55038714,19.1600752 C6.66038714,20.6800752 6.70038676,21.2500753 8.79038668,21.2500753 L15.2103872,21.2500753 C17.3103871,21.2500753 17.350388,20.6800752 17.450388,19.1600752 L18.1003876,9.09007555 C18.1303876,8.68007556 18.4903868,8.37007575 18.9003868,8.39007575 C19.3103868,8.42007575 19.6303876,8.77007499 19.6003876,9.19007498 L18.950388,19.2600756 C18.840388,20.8200755 18.7003872,22.7500753 15.2103872,22.7500753 L8.79038668,22.7500753 Z" id="Vector" fill="#DC2556" fill-rule="nonzero"></path>
                <path d="M10.3300781,17.25 C9.92007813,17.25 9.58007812,16.91 9.58007812,16.5 C9.58007812,16.09 9.92007813,15.75 10.3300781,15.75 L13.660078,15.75 C14.070078,15.75 14.410078,16.09 14.410078,16.5 C14.410078,16.91 14.070078,17.25 13.660078,17.25 L10.3300781,17.25 Z" id="Vector" fill="#DC2556" fill-rule="nonzero"></path>
                <path d="M9.5,13.25 C9.09,13.25 8.75,12.91 8.75,12.5 C8.75,12.09 9.09,11.75 9.5,11.75 L14.5,11.75 C14.91,11.75 15.25,12.09 15.25,12.5 C15.25,12.91 14.91,13.25 14.5,13.25 L9.5,13.25 Z" id="Vector" fill="#DC2556" fill-rule="nonzero"></path>
                <path d="M24,0 L24,24 L0,24 L0,0 L24,0 Z" id="Vector" opacity="0"></path>
            </g>
        </g>
    </g>
</svg>