<?xml version="1.0" encoding="UTF-8"?>
<svg width="22px" height="22px" viewBox="0 0 22 22" version="1.1" xmlns="http://www.w3.org/2000/svg" xmlns:xlink="http://www.w3.org/1999/xlink">
    <title>ic_edit</title>
    <g id="Page-1" stroke="none" stroke-width="1" fill="none" fill-rule="evenodd">
        <g id="Notend---Users" transform="translate(-1881.000000, -395.000000)">
            <g id="edit" transform="translate(1880.000000, 394.000000)">
                <path d="M9,22.75 C3.57000017,22.75 1.25,20.4299998 1.25,15 L1.25,9 C1.25,3.57000017 3.57000017,1.25 9,1.25 L11,1.25 C11.41,1.25 11.75,1.59 11.75,2 C11.75,2.41 11.41,2.75 11,2.75 L9,2.75 C4.38999987,2.75 2.75,4.38999987 2.75,9 L2.75,15 C2.75,19.6100001 4.38999987,21.25 9,21.25 L15,21.25 C19.6100001,21.25 21.25,19.6100001 21.25,15 L21.25,13 C21.25,12.59 21.59,12.25 22,12.25 C22.41,12.25 22.75,12.59 22.75,13 L22.75,15 C22.75,20.4299998 20.4299998,22.75 15,22.75 L9,22.75 Z" id="Vector" fill="#292D32" fill-rule="nonzero"></path>
                <path d="M6.91934723,17.0700588 C6.42934722,16.5800588 6.21934705,15.8700581 6.32934705,15.1200581 L6.75934735,12.1100578 C6.83934735,11.5300578 7.21934721,10.7800581 7.62934721,10.3700581 L15.509347,2.49005866 C17.499347,0.500058651 19.519347,0.500058651 21.509347,2.49005866 C22.599347,3.58005869 23.0893475,4.69005883 22.9893475,5.80005884 C22.8993475,6.70005882 22.419347,7.58005822 21.509347,8.48005819 L13.6293473,16.3600588 C13.2193473,16.7700588 12.4693475,17.1500587 11.8893476,17.2300587 L8.87934732,17.660059 C8.74934733,17.6900597 8.61934721,17.6900597 8.49934721,17.6900597 C7.8893472,17.6900597 7.32934722,17.4700588 6.91934723,17.0700588 Z M8.68934679,11.4300585 C8.49934679,11.6200585 8.27934686,12.0600579 8.23934686,12.3200579 L7.80934703,15.3300581 C7.76934703,15.6200581 7.8293471,15.8600584 7.97934711,16.0100584 C8.12934712,16.1600584 8.36934707,16.2200585 8.65934706,16.1800585 L11.6693473,15.7500582 C11.9293473,15.7100582 12.3793476,15.4900584 12.5593476,15.3000584 L20.4393473,7.42005873 C21.0893472,6.77005875 21.4293463,6.19005877 21.4793463,5.65005875 C21.5393463,5.00005877 21.1993473,4.31005859 20.4393473,3.54005861 C18.8393472,1.94005859 17.7393464,2.39005864 16.5693464,3.5500586 L8.68934679,11.4300585 Z" id="Vector" fill="#292D32"></path>
                <path d="M19.6495676,9.79978275 C17.0195675,9.05978274 14.9295677,6.96978277 14.1895677,4.33978266 C14.0795677,3.93978265 14.3095681,3.52978257 14.7095681,3.40978257 C15.1095681,3.29978257 15.5195682,3.52978256 15.6295682,3.92978257 C16.2295682,6.05978268 17.9195671,7.74978292 20.0495672,8.34978294 C20.4495672,8.45978294 20.6795677,8.87978229 20.5695677,9.2797823 C20.4795677,9.6197823 20.1795684,9.82978249 19.8495684,9.82978249 C19.7795684,9.82978249 19.7095676,9.81978275 19.6495676,9.79978275 Z" id="Vector" fill="#292D32" fill-rule="nonzero"></path>
                <path d="M24,0 L24,24 L0,24 L0,0 L24,0 Z" id="Vector" opacity="0"></path>
            </g>
        </g>
    </g>
</svg>